<?xml version="1.0" encoding="UTF-8"?> <svg xmlns="http://www.w3.org/2000/svg" xmlns:xlink="http://www.w3.org/1999/xlink" id="Capa_1" version="1.1" viewBox="0 0 754 192.1"><defs><style> .st0 { fill: #007acc; } .st1 { fill: url(#Degradado_sin_nombre_29); } </style><linearGradient id="Degradado_sin_nombre_29" data-name="Degradado sin nombre 29" x1="76" y1="181.2" x2="112.2" y2="10.9" gradientUnits="userSpaceOnUse"><stop offset="0" stop-color="#1da1f2"></stop><stop offset="1" stop-color="#007acc"></stop></linearGradient></defs><g><path class="st0" d="M233.5,50.4v90h-16.1V50.4h16.1Z"></path><path class="st0" d="M260.7,76.6v6.2c2.1-2.7,4.8-4.6,8.1-5.8,3.3-1.2,6.4-1.8,9.5-1.8,8.8,0,15.8,1.9,20.9,5.6,5.2,3.7,7.8,9.7,7.8,17.9v41.6h-15.3v-40.8c0-3.9-1.5-6.9-4.4-9-3-2.1-6.6-3.2-10.8-3.2s-8.1,1.2-11,3.6c-2.9,2.4-4.3,5.8-4.3,10.1v39.2h-15.3v-63.8h14.7Z"></path><path class="st0" d="M350.4,140.4c-2.3.4-4.6.7-6.7.8-2.2,0-3.8.1-4.8.1-6.1,0-10.7-1.6-13.7-4.9-3.1-3.3-4.6-7.7-4.6-13.1v-34h-9.8v-12.6h9.8v-18.7h15.3v18.7h15.5v12.6h-15.5v33.1c0,2.1.4,3.6,1.3,4.6.9,1,2.4,1.5,4.5,1.5s2.7-.1,4.6-.3c1.9-.2,3.3-.4,4.1-.6v12.9Z"></path><path class="st0" d="M387.4,87.8c-5.2,0-9.1,1.5-11.7,4.4-2.6,2.9-4,7.5-4,13.8v34.4h-15.3v-63.8h14.8v4.9c1.8-2.3,4.2-3.9,7.1-4.8,2.9-1,5.9-1.4,9-1.4s2.5,0,4.3,0c1.8,0,3.4.2,5,.6v13c-1.6-.4-3.3-.7-5.1-.9-1.8-.2-3.2-.3-4.2-.3Z"></path><path class="st0" d="M398.6,95c.2-2.7.9-5.2,2.3-7.6,1.3-2.4,3.2-4.5,5.5-6.2,2.3-1.8,5.1-3.2,8.5-4.2s7.1-1.6,11.4-1.6,9.5.6,13,1.9c3.5,1.3,6.3,3.1,8.4,5.4,2.1,2.3,3.6,5.2,4.5,8.4.9,3.3,1.3,6.9,1.3,10.9v29c0,3.9.1,6.5.4,7.8,0,.9.2,1.4.4,1.7h-13.6c-.2-.3-.4-.9-.6-1.7-.2-.7-.3-1.6-.3-2.7,0-1.1,0-2.7,0-4.7-.7,1.6-1.8,3-3.1,4.2-1.3,1.3-2.8,2.3-4.5,3.2-1.7.9-3.4,1.6-5.3,2.1-1.8.5-3.7.8-5.4.8-3.2,0-6.4-.4-9.6-1.1-3.1-.7-6-1.9-8.5-3.4-2.5-1.6-4.5-3.6-6-6.2-1.5-2.6-2.3-5.7-2.3-9.3s.8-6.3,2.4-8.8c1.6-2.5,3.6-4.5,6.1-6.2,2.5-1.6,5.3-2.9,8.3-3.7,3.1-.8,6.1-1.3,9.2-1.4l17.3-.6v-2.9c0-3.6-1-6.3-3.1-8.1-2.1-1.8-5.1-2.7-8.9-2.7s-6.1.7-8.4,2.1c-2.3,1.4-3.5,3.2-3.8,5.6h-15.4ZM438.4,112.8l-16.6.6c-3.9.2-6.7,1-8.6,2.5-1.8,1.5-2.8,3.5-2.8,6s1.1,3.7,3.3,5c2.2,1.3,4.9,2,8.3,2s4.6-.4,6.7-1.2c2-.8,3.8-1.9,5.2-3.2,1.4-1.4,2.6-2.9,3.4-4.7.8-1.7,1.2-3.6,1.2-5.6v-1.6Z"></path><path class="st0" d="M473.4,122.5c.3,2.3,1.6,4,4,5.1,2.4,1.2,5.1,1.8,8.1,1.8s2.6-.1,4-.3c1.3-.2,2.5-.6,3.6-1.2,1.1-.6,1.9-1.4,2.6-2.4.7-1,1-2.2,1-3.7s-.3-2.2-1-3.1c-.7-.8-1.6-1.5-2.8-2-1.2-.5-2.6-1-4.2-1.3-1.6-.3-3.4-.6-5.2-.9-2.9-.5-5.8-1.1-8.7-1.7-2.9-.6-5.5-1.6-7.8-2.9-2.3-1.3-4.2-3.1-5.7-5.5-1.5-2.3-2.2-5.5-2.2-9.4s.7-6.4,2.1-8.9c1.4-2.5,3.2-4.5,5.5-6.1,2.3-1.6,5-2.8,8.1-3.5,3.1-.7,6.4-1.1,9.8-1.1,7.1,0,13,1.6,17.6,4.7,4.6,3.2,7,7.8,7.1,13.8h-14.3c-.4-1.9-1.6-3.5-3.7-4.7-2.1-1.3-4.4-1.9-6.9-1.9s-5.1.6-7.2,1.7c-2.1,1.1-3.2,2.7-3.2,4.7s.4,2.5,1.2,3.4c.8.9,1.8,1.7,3.1,2.3,1.3.6,2.8,1.1,4.6,1.4,1.8.3,3.6.6,5.4.9,2.9.4,5.7,1,8.5,1.6,2.8.6,5.3,1.7,7.6,3.1,2.2,1.4,4,3.3,5.4,5.7,1.4,2.4,2.1,5.6,2.1,9.6s-.8,6.9-2.4,9.4c-1.6,2.6-3.6,4.6-6.2,6.2-2.5,1.6-5.4,2.7-8.5,3.3-3.1.6-6.2,1-9.3,1s-7.4-.4-10.7-1.1c-3.4-.7-6.3-1.9-8.8-3.4-2.5-1.6-4.5-3.5-6-6-1.5-2.4-2.3-5.3-2.3-8.7h15.8Z"></path><path class="st0" d="M517.6,95c.2-2.7.9-5.2,2.3-7.6,1.3-2.4,3.2-4.5,5.5-6.2,2.3-1.8,5.1-3.2,8.5-4.2s7.1-1.6,11.4-1.6,9.5.6,13,1.9c3.5,1.3,6.3,3.1,8.4,5.4,2.1,2.3,3.6,5.2,4.5,8.4.9,3.3,1.3,6.9,1.3,10.9v29c0,3.9.1,6.5.4,7.8,0,.9.2,1.4.4,1.7h-13.6c-.2-.3-.4-.9-.6-1.7-.2-.7-.3-1.6-.3-2.7,0-1.1,0-2.7,0-4.7-.7,1.6-1.8,3-3.1,4.2-1.3,1.3-2.8,2.3-4.5,3.2-1.7.9-3.4,1.6-5.3,2.1-1.8.5-3.7.8-5.4.8-3.2,0-6.4-.4-9.6-1.1-3.1-.7-6-1.9-8.5-3.4-2.5-1.6-4.5-3.6-6-6.2-1.5-2.6-2.3-5.7-2.3-9.3s.8-6.3,2.4-8.8c1.6-2.5,3.6-4.5,6.1-6.2,2.5-1.6,5.3-2.9,8.3-3.7,3.1-.8,6.1-1.3,9.2-1.4l17.3-.6v-2.9c0-3.6-1-6.3-3.1-8.1-2.1-1.8-5.1-2.7-8.9-2.7s-6.1.7-8.4,2.1c-2.3,1.4-3.5,3.2-3.8,5.6h-15.4ZM557.4,112.8l-16.6.6c-3.9.2-6.7,1-8.6,2.5-1.8,1.5-2.8,3.5-2.8,6s1.1,3.7,3.3,5c2.2,1.3,4.9,2,8.3,2s4.6-.4,6.7-1.2c2-.8,3.8-1.9,5.2-3.2,1.4-1.4,2.6-2.9,3.4-4.7.8-1.7,1.2-3.6,1.2-5.6v-1.6Z"></path><path class="st0" d="M595.8,50.4v90h-15.3V50.4h15.3Z"></path><path class="st0" d="M652.5,140.4l-.3-6.2c-2.1,2.7-4.9,4.6-8.2,5.8-3.4,1.2-6.6,1.8-9.6,1.8-8.8,0-15.7-1.9-20.8-5.6-5.1-3.7-7.6-9.7-7.6-17.9v-41.6h15.3v40.5c0,3.9,1.5,6.9,4.4,9,3,2.1,6.6,3.2,10.8,3.2s8.1-1.2,11-3.6c2.9-2.4,4.3-5.8,4.3-10.1v-39h15.3v63.8h-14.4Z"></path><path class="st0" d="M722.5,133.1c-1.2,1.6-2.6,3.1-4.3,4.3-1.6,1.1-3.5,2.1-5.8,3-2.3.9-5.1,1.3-8.3,1.3-9.5,0-17-2.9-22.4-8.6-5.4-5.8-8.1-14-8.1-24.6s.6-9.4,1.9-13.4c1.3-4,3.3-7.5,5.9-10.5,2.6-2.9,6-5.2,10.1-6.8,4.1-1.6,8.9-2.4,14.4-2.4s2.7.2,4.2.5c1.5.3,2.9.8,4.4,1.4,1.4.6,2.8,1.4,4.1,2.3,1.3.9,2.4,1.9,3.3,3.1v-32.2h15.1v90h-14.4v-7.3ZM705.9,87.4c-3,0-5.5.6-7.6,1.8-2.1,1.2-3.9,2.8-5.2,4.7-1.3,2-2.3,4.3-3,6.8-.6,2.6-1,5.2-1,7.9s.3,5.3,1,7.8c.6,2.5,1.6,4.7,3,6.6,1.3,1.9,3.1,3.4,5.2,4.6,2.1,1.2,4.7,1.8,7.6,1.8s5.2-.6,7.2-1.8c2-1.2,3.7-2.7,5.1-4.5,1.3-1.8,2.3-3.9,3-6.1.6-2.3,1-4.5,1-6.8v-2.7c0-2.6-.5-5.1-1.2-7.5-.7-2.4-1.7-4.6-3-6.4-1.3-1.9-3-3.4-5-4.5-2-1.1-4.4-1.7-7.1-1.7Z"></path></g><path class="st1" d="M94.1,45.6c27.8,0,50.4,22.6,50.4,50.4s-22.6,50.4-50.4,50.4-50.4-22.6-50.4-50.4,22.6-50.4,50.4-50.4M94.1,9C46.1,9,7.1,48,7.1,96.1s39,87,87,87,87-39,87-87S142.2,9,94.1,9h0Z"></path></svg> 